<mxfile host="app.diagrams.net" modified="2020-10-19T05:08:04.738Z" agent="5.0 (Windows NT 6.1; WOW64) AppleWebKit/537.36 (KHTML, like Gecko) Chrome/83.0.4103.97 Safari/537.36" etag="mG4iGzXeFqNdaiRXEqKu" version="13.8.0" type="github" pages="2">
  <diagram name="Page-1" id="97916047-d0de-89f5-080d-49f4d83e522f">
    <mxGraphModel dx="1634" dy="747" grid="1" gridSize="10" guides="1" tooltips="1" connect="1" arrows="1" fold="1" page="1" pageScale="1.5" pageWidth="1169" pageHeight="827" background="#ffffff" math="0" shadow="0">
      <root>
        <mxCell id="0" />
        <mxCell id="1" parent="0" />
        <mxCell id="2" value="录入员" style="rounded=1;fillColor=#10739E;strokeColor=none;shadow=1;gradientColor=none;fontStyle=1;fontColor=#FFFFFF;fontSize=14;" parent="1" vertex="1">
          <mxGeometry x="560" y="70" width="200" height="60" as="geometry" />
        </mxCell>
        <mxCell id="3" value="录入信息，上传图片，提交或暂存" style="rounded=1;fillColor=#10739E;strokeColor=none;shadow=1;gradientColor=none;fontStyle=1;fontColor=#FFFFFF;fontSize=14;" parent="1" vertex="1">
          <mxGeometry x="550" y="231" width="220" height="60" as="geometry" />
        </mxCell>
        <mxCell id="13" value="理赔员" style="rounded=1;fillColor=#10739E;strokeColor=none;shadow=1;gradientColor=none;fontStyle=1;fontColor=#FFFFFF;fontSize=14;" parent="1" vertex="1">
          <mxGeometry x="560" y="400" width="200" height="60" as="geometry" />
        </mxCell>
        <mxCell id="LGrF4aPvjSiB4dfjYXlf-71" style="edgeStyle=orthogonalEdgeStyle;rounded=0;jumpSize=6;orthogonalLoop=1;jettySize=auto;html=1;endSize=6;strokeWidth=4;fontSize=14;fontColor=#FFFFFF;" parent="1" edge="1">
          <mxGeometry relative="1" as="geometry">
            <mxPoint x="660" y="690" as="targetPoint" />
            <mxPoint x="660" y="620" as="sourcePoint" />
            <Array as="points">
              <mxPoint x="660" y="670" />
            </Array>
          </mxGeometry>
        </mxCell>
        <mxCell id="14" value="录入信息，上传图片，提交" style="rounded=1;fillColor=#10739E;strokeColor=none;shadow=1;gradientColor=none;fontStyle=1;fontColor=#FFFFFF;fontSize=14;" parent="1" vertex="1">
          <mxGeometry x="560" y="560" width="200" height="60" as="geometry" />
        </mxCell>
        <mxCell id="16" value="审核员" style="rounded=1;fillColor=#10739E;strokeColor=none;shadow=1;gradientColor=none;fontStyle=1;fontColor=#FFFFFF;fontSize=14;" parent="1" vertex="1">
          <mxGeometry x="560" y="694.5" width="200" height="60" as="geometry" />
        </mxCell>
        <mxCell id="29" value="" style="edgeStyle=elbowEdgeStyle;elbow=vertical;strokeWidth=4;endArrow=block;endFill=1;fontStyle=1;strokeColor=#23445D;" parent="1" source="2" target="3" edge="1">
          <mxGeometry x="-90" y="-44.5" width="100" height="100" as="geometry">
            <mxPoint x="-90" y="55.5" as="sourcePoint" />
            <mxPoint x="10" y="-44.5" as="targetPoint" />
          </mxGeometry>
        </mxCell>
        <mxCell id="42" value="" style="edgeStyle=elbowEdgeStyle;elbow=vertical;strokeWidth=4;endArrow=block;endFill=1;fontStyle=1;strokeColor=#23445D;" parent="1" source="13" edge="1">
          <mxGeometry x="-50" y="-44.5" width="100" height="100" as="geometry">
            <mxPoint x="-50" y="55.5" as="sourcePoint" />
            <mxPoint x="660" y="560" as="targetPoint" />
          </mxGeometry>
        </mxCell>
        <mxCell id="54" value="" style="edgeStyle=elbowEdgeStyle;elbow=vertical;strokeWidth=4;endArrow=block;endFill=1;fontStyle=1;strokeColor=#23445D;endSize=6;jumpSize=6;exitX=0.5;exitY=1;exitDx=0;exitDy=0;" parent="1" source="3" target="13" edge="1">
          <mxGeometry x="-90" y="-44.5" width="100" height="100" as="geometry">
            <mxPoint x="660" y="300" as="sourcePoint" />
            <mxPoint x="10" y="-44.5" as="targetPoint" />
            <Array as="points">
              <mxPoint x="660" y="390" />
              <mxPoint x="540" y="345.5" />
            </Array>
          </mxGeometry>
        </mxCell>
        <mxCell id="LGrF4aPvjSiB4dfjYXlf-62" value="" style="endArrow=classic;startArrow=classic;html=1;strokeWidth=4;" parent="1" edge="1">
          <mxGeometry width="50" height="50" relative="1" as="geometry">
            <mxPoint x="765" y="100" as="sourcePoint" />
            <mxPoint x="775" y="270" as="targetPoint" />
            <Array as="points">
              <mxPoint x="895" y="190" />
            </Array>
          </mxGeometry>
        </mxCell>
        <mxCell id="LGrF4aPvjSiB4dfjYXlf-64" value="列表页表头得有提交状态这一栏&#xa;录入页面是提交和暂存按钮&#xa;需要录入查勘现场情况、车辆统筹情况&#xa;上传图片" style="rounded=1;fillColor=#10739E;strokeColor=none;shadow=1;gradientColor=none;fontStyle=1;fontColor=#FFFFFF;fontSize=14;" parent="1" vertex="1">
          <mxGeometry x="888" y="120" width="300" height="120" as="geometry" />
        </mxCell>
        <mxCell id="LGrF4aPvjSiB4dfjYXlf-69" value="" style="endArrow=classic;startArrow=classic;html=1;strokeWidth=4;" parent="1" edge="1">
          <mxGeometry width="50" height="50" relative="1" as="geometry">
            <mxPoint x="768" y="430" as="sourcePoint" />
            <mxPoint x="768" y="600" as="targetPoint" />
            <Array as="points">
              <mxPoint x="888" y="520" />
            </Array>
          </mxGeometry>
        </mxCell>
        <mxCell id="LGrF4aPvjSiB4dfjYXlf-70" value="录入页面是提交按钮&#xa;需要查看录入查勘现场情况、车辆统筹情况&#xa;录入剩余项目，包括上传图片" style="rounded=1;fillColor=#10739E;strokeColor=none;shadow=1;gradientColor=none;fontStyle=1;fontSize=14;fontColor=#FFFFFF;" parent="1" vertex="1">
          <mxGeometry x="878" y="465.5" width="300" height="120" as="geometry" />
        </mxCell>
        <mxCell id="LGrF4aPvjSiB4dfjYXlf-73" style="edgeStyle=orthogonalEdgeStyle;rounded=0;jumpSize=6;orthogonalLoop=1;jettySize=auto;html=1;endSize=6;strokeWidth=4;fontSize=14;fontColor=#FFFFFF;" parent="1" edge="1">
          <mxGeometry relative="1" as="geometry">
            <mxPoint x="660" y="824.5" as="targetPoint" />
            <mxPoint x="660" y="754.5" as="sourcePoint" />
            <Array as="points">
              <mxPoint x="660" y="804.5" />
            </Array>
          </mxGeometry>
        </mxCell>
        <mxCell id="LGrF4aPvjSiB4dfjYXlf-74" value="审核员" style="rounded=1;fillColor=#10739E;strokeColor=none;shadow=1;gradientColor=none;fontStyle=1;fontColor=#FFFFFF;fontSize=14;" parent="1" vertex="1">
          <mxGeometry x="560" y="829" width="200" height="60" as="geometry" />
        </mxCell>
        <mxCell id="LGrF4aPvjSiB4dfjYXlf-77" value="" style="endArrow=classic;startArrow=classic;html=1;strokeWidth=4;" parent="1" edge="1">
          <mxGeometry width="50" height="50" relative="1" as="geometry">
            <mxPoint x="765" y="713" as="sourcePoint" />
            <mxPoint x="765" y="883" as="targetPoint" />
            <Array as="points">
              <mxPoint x="885" y="803" />
            </Array>
          </mxGeometry>
        </mxCell>
        <mxCell id="LGrF4aPvjSiB4dfjYXlf-78" value="录入页面是提交按钮&#xa;需要查看录入查勘现场情况、车辆统筹情况&#xa;录入剩余项目，包括上传图片" style="rounded=1;fillColor=#10739E;strokeColor=none;shadow=1;gradientColor=none;fontStyle=1;fontSize=14;fontColor=#FFFFFF;" parent="1" vertex="1">
          <mxGeometry x="878" y="745.5" width="300" height="120" as="geometry" />
        </mxCell>
      </root>
    </mxGraphModel>
  </diagram>
  <diagram name="Kopija Page-1" id="sIT5yJls2URziNg8MRSp">
    <mxGraphModel dx="1816" dy="884" grid="1" gridSize="10" guides="1" tooltips="1" connect="1" arrows="1" fold="1" page="1" pageScale="1.5" pageWidth="1169" pageHeight="827" background="#ffffff" math="0" shadow="0">
      <root>
        <mxCell id="0Ql-L5QieWBkQXa2ZUsk-0" />
        <mxCell id="0Ql-L5QieWBkQXa2ZUsk-1" parent="0Ql-L5QieWBkQXa2ZUsk-0" />
        <mxCell id="0Ql-L5QieWBkQXa2ZUsk-2" value="录入员" style="rounded=1;fillColor=#10739E;strokeColor=none;shadow=1;gradientColor=none;fontStyle=1;fontColor=#FFFFFF;fontSize=14;" vertex="1" parent="0Ql-L5QieWBkQXa2ZUsk-1">
          <mxGeometry x="560" y="70" width="200" height="60" as="geometry" />
        </mxCell>
        <mxCell id="0Ql-L5QieWBkQXa2ZUsk-3" value="录入信息，上传图片，提交或暂存" style="rounded=1;fillColor=#10739E;strokeColor=none;shadow=1;gradientColor=none;fontStyle=1;fontColor=#FFFFFF;fontSize=14;" vertex="1" parent="0Ql-L5QieWBkQXa2ZUsk-1">
          <mxGeometry x="550" y="231" width="220" height="60" as="geometry" />
        </mxCell>
        <mxCell id="0Ql-L5QieWBkQXa2ZUsk-4" value="理赔员" style="rounded=1;fillColor=#10739E;strokeColor=none;shadow=1;gradientColor=none;fontStyle=1;fontColor=#FFFFFF;fontSize=14;" vertex="1" parent="0Ql-L5QieWBkQXa2ZUsk-1">
          <mxGeometry x="560" y="400" width="200" height="60" as="geometry" />
        </mxCell>
        <mxCell id="0Ql-L5QieWBkQXa2ZUsk-5" style="edgeStyle=orthogonalEdgeStyle;rounded=0;jumpSize=6;orthogonalLoop=1;jettySize=auto;html=1;endSize=6;strokeWidth=4;fontSize=14;fontColor=#FFFFFF;" edge="1" parent="0Ql-L5QieWBkQXa2ZUsk-1">
          <mxGeometry relative="1" as="geometry">
            <mxPoint x="660" y="690" as="targetPoint" />
            <mxPoint x="660" y="620" as="sourcePoint" />
            <Array as="points">
              <mxPoint x="660" y="670" />
            </Array>
          </mxGeometry>
        </mxCell>
        <mxCell id="0Ql-L5QieWBkQXa2ZUsk-6" value="录入信息，上传图片，提交" style="rounded=1;fillColor=#10739E;strokeColor=none;shadow=1;gradientColor=none;fontStyle=1;fontColor=#FFFFFF;fontSize=14;" vertex="1" parent="0Ql-L5QieWBkQXa2ZUsk-1">
          <mxGeometry x="560" y="560" width="200" height="60" as="geometry" />
        </mxCell>
        <mxCell id="0Ql-L5QieWBkQXa2ZUsk-7" value="审核员" style="rounded=1;fillColor=#10739E;strokeColor=none;shadow=1;gradientColor=none;fontStyle=1;fontColor=#FFFFFF;fontSize=14;" vertex="1" parent="0Ql-L5QieWBkQXa2ZUsk-1">
          <mxGeometry x="560" y="694.5" width="200" height="60" as="geometry" />
        </mxCell>
        <mxCell id="0Ql-L5QieWBkQXa2ZUsk-8" value="" style="edgeStyle=elbowEdgeStyle;elbow=vertical;strokeWidth=4;endArrow=block;endFill=1;fontStyle=1;strokeColor=#23445D;" edge="1" parent="0Ql-L5QieWBkQXa2ZUsk-1" source="0Ql-L5QieWBkQXa2ZUsk-2" target="0Ql-L5QieWBkQXa2ZUsk-3">
          <mxGeometry x="-90" y="-44.5" width="100" height="100" as="geometry">
            <mxPoint x="-90" y="55.5" as="sourcePoint" />
            <mxPoint x="10" y="-44.5" as="targetPoint" />
          </mxGeometry>
        </mxCell>
        <mxCell id="0Ql-L5QieWBkQXa2ZUsk-9" value="" style="edgeStyle=elbowEdgeStyle;elbow=vertical;strokeWidth=4;endArrow=block;endFill=1;fontStyle=1;strokeColor=#23445D;" edge="1" parent="0Ql-L5QieWBkQXa2ZUsk-1" source="0Ql-L5QieWBkQXa2ZUsk-4">
          <mxGeometry x="-50" y="-44.5" width="100" height="100" as="geometry">
            <mxPoint x="-50" y="55.5" as="sourcePoint" />
            <mxPoint x="660" y="560" as="targetPoint" />
          </mxGeometry>
        </mxCell>
        <mxCell id="0Ql-L5QieWBkQXa2ZUsk-10" value="" style="edgeStyle=elbowEdgeStyle;elbow=vertical;strokeWidth=4;endArrow=block;endFill=1;fontStyle=1;strokeColor=#23445D;endSize=6;jumpSize=6;exitX=0.5;exitY=1;exitDx=0;exitDy=0;" edge="1" parent="0Ql-L5QieWBkQXa2ZUsk-1" source="0Ql-L5QieWBkQXa2ZUsk-3" target="0Ql-L5QieWBkQXa2ZUsk-4">
          <mxGeometry x="-90" y="-44.5" width="100" height="100" as="geometry">
            <mxPoint x="660" y="300" as="sourcePoint" />
            <mxPoint x="10" y="-44.5" as="targetPoint" />
            <Array as="points">
              <mxPoint x="660" y="390" />
              <mxPoint x="540" y="345.5" />
            </Array>
          </mxGeometry>
        </mxCell>
        <mxCell id="0Ql-L5QieWBkQXa2ZUsk-11" value="" style="endArrow=classic;startArrow=classic;html=1;strokeWidth=4;" edge="1" parent="0Ql-L5QieWBkQXa2ZUsk-1">
          <mxGeometry width="50" height="50" relative="1" as="geometry">
            <mxPoint x="765" y="100" as="sourcePoint" />
            <mxPoint x="775" y="270" as="targetPoint" />
            <Array as="points">
              <mxPoint x="895" y="190" />
            </Array>
          </mxGeometry>
        </mxCell>
        <mxCell id="0Ql-L5QieWBkQXa2ZUsk-12" value="列表页表头得有提交状态这一栏&#xa;录入页面是提交和暂存按钮&#xa;需要录入查勘现场情况、车辆统筹情况&#xa;上传图片" style="rounded=1;fillColor=#10739E;strokeColor=none;shadow=1;gradientColor=none;fontStyle=1;fontColor=#FFFFFF;fontSize=14;" vertex="1" parent="0Ql-L5QieWBkQXa2ZUsk-1">
          <mxGeometry x="888" y="120" width="300" height="120" as="geometry" />
        </mxCell>
        <mxCell id="0Ql-L5QieWBkQXa2ZUsk-13" value="" style="endArrow=classic;startArrow=classic;html=1;strokeWidth=4;" edge="1" parent="0Ql-L5QieWBkQXa2ZUsk-1">
          <mxGeometry width="50" height="50" relative="1" as="geometry">
            <mxPoint x="768" y="430" as="sourcePoint" />
            <mxPoint x="768" y="600" as="targetPoint" />
            <Array as="points">
              <mxPoint x="888" y="520" />
            </Array>
          </mxGeometry>
        </mxCell>
        <mxCell id="0Ql-L5QieWBkQXa2ZUsk-14" value="录入页面是提交按钮&#xa;需要查看录入查勘现场情况、车辆统筹情况&#xa;录入剩余项目，包括上传图片" style="rounded=1;fillColor=#10739E;strokeColor=none;shadow=1;gradientColor=none;fontStyle=1;fontSize=14;fontColor=#FFFFFF;" vertex="1" parent="0Ql-L5QieWBkQXa2ZUsk-1">
          <mxGeometry x="878" y="465.5" width="300" height="120" as="geometry" />
        </mxCell>
        <mxCell id="0Ql-L5QieWBkQXa2ZUsk-15" style="edgeStyle=orthogonalEdgeStyle;rounded=0;jumpSize=6;orthogonalLoop=1;jettySize=auto;html=1;endSize=6;strokeWidth=4;fontSize=14;fontColor=#FFFFFF;" edge="1" parent="0Ql-L5QieWBkQXa2ZUsk-1">
          <mxGeometry relative="1" as="geometry">
            <mxPoint x="660" y="824.5" as="targetPoint" />
            <mxPoint x="660" y="754.5" as="sourcePoint" />
            <Array as="points">
              <mxPoint x="660" y="804.5" />
            </Array>
          </mxGeometry>
        </mxCell>
        <mxCell id="0Ql-L5QieWBkQXa2ZUsk-16" value="审核员" style="rounded=1;fillColor=#10739E;strokeColor=none;shadow=1;gradientColor=none;fontStyle=1;fontColor=#FFFFFF;fontSize=14;" vertex="1" parent="0Ql-L5QieWBkQXa2ZUsk-1">
          <mxGeometry x="560" y="829" width="200" height="60" as="geometry" />
        </mxCell>
        <mxCell id="0Ql-L5QieWBkQXa2ZUsk-17" value="" style="endArrow=classic;startArrow=classic;html=1;strokeWidth=4;" edge="1" parent="0Ql-L5QieWBkQXa2ZUsk-1">
          <mxGeometry width="50" height="50" relative="1" as="geometry">
            <mxPoint x="765" y="713" as="sourcePoint" />
            <mxPoint x="765" y="883" as="targetPoint" />
            <Array as="points">
              <mxPoint x="885" y="803" />
            </Array>
          </mxGeometry>
        </mxCell>
        <mxCell id="0Ql-L5QieWBkQXa2ZUsk-18" value="录入页面是提交按钮&#xa;需要查看录入查勘现场情况、车辆统筹情况&#xa;录入剩余项目，包括上传图片" style="rounded=1;fillColor=#10739E;strokeColor=none;shadow=1;gradientColor=none;fontStyle=1;fontSize=14;fontColor=#FFFFFF;" vertex="1" parent="0Ql-L5QieWBkQXa2ZUsk-1">
          <mxGeometry x="878" y="745.5" width="300" height="120" as="geometry" />
        </mxCell>
      </root>
    </mxGraphModel>
  </diagram>
</mxfile>
